<svg width="24" height="24" viewBox="0 0 24 24" fill="none" xmlns="http://www.w3.org/2000/svg">
<path d="M18.4 12.48C20.248 12.48 22.096 12.48 24 12.48C23.84 14.56 23.84 14.56 23.04 16.96C21.192 16.96 19.344 16.96 17.44 16.96C17.5456 16.4848 17.6512 16.0096 17.76 15.52C17.8177 15.2516 17.8749 14.983 17.9313 14.7144C17.9564 14.5945 17.9816 14.4747 18.0076 14.3512C18.0381 14.2056 18.0686 14.06 18.1 13.91C18.199 13.4381 18.298 12.9662 18.4 12.48Z" fill="white"/>
<path d="M16.8 18.08C18.5952 18.08 20.3904 18.08 22.24 18.08C21.3208 20.3781 19.0534 22.2087 16.8155 23.171C15.6624 23.6206 14.5194 23.9348 13.28 24C13.6298 23.3564 14.0022 22.7549 14.43 22.16C14.9215 21.4675 15.3719 20.7569 15.81 20.03C15.8716 19.9285 15.9332 19.8271 15.9967 19.7225C16.3206 19.1799 16.5634 18.6715 16.8 18.08Z" fill="white"/>
<path d="M0 12.48C1.7952 12.48 3.5904 12.48 5.44 12.48C5.73 13.9 5.73 13.9 5.81801 14.3368C5.85519 14.5159 5.85519 14.5159 5.89313 14.6987C5.91742 14.8177 5.94172 14.9367 5.96676 15.0593C6.13738 15.7534 6.35461 16.4353 6.56 17.12C4.712 17.0672 2.864 17.0144 0.96 16.96C0.16 14.56 0.16 14.56 0 12.48Z" fill="white"/>
<path d="M1.76 18.08C3.5024 18.08 5.2448 18.08 7.04 18.08C7.2446 18.4826 7.4492 18.8852 7.66 19.3C8.42564 20.7727 9.33739 22.1012 10.3662 23.4019C10.56 23.68 10.56 23.68 10.56 24C7.38618 23.623 4.52046 22.0319 2.51062 19.5425C1.76 18.4974 1.76 18.4974 1.76 18.08Z" fill="white"/>
<path d="M17.92 6.87994C19.6096 6.87994 21.2992 6.87994 23.04 6.87994C23.1687 7.26274 23.2974 7.64554 23.43 8.03994C23.4703 8.15611 23.5106 8.27228 23.5522 8.39198C23.8873 9.42786 23.9033 10.1994 24 11.3599C22.152 11.3599 20.304 11.3599 18.4 11.3599C18.25 9.83994 18.25 9.83994 18.2038 9.36901C18.1912 9.24227 18.1786 9.11553 18.1656 8.98494C18.1531 8.85758 18.1405 8.73023 18.1275 8.59901C18.0654 8.02518 17.9916 7.45267 17.92 6.87994Z" fill="white"/>
<path d="M0.96 6.87994C2.5968 6.87994 4.2336 6.87994 5.92 6.87994C5.83671 7.62958 5.74792 8.38034 5.6 9.11994C5.5472 9.85914 5.4944 10.5983 5.44 11.3599C3.6448 11.3599 1.8496 11.3599 0 11.3599C0.183951 9.15254 0.183951 9.15254 0.57 8.03994C0.6987 7.65714 0.8274 7.27434 0.96 6.87994Z" fill="white"/>
<path d="M13.76 0C17.1833 0.451497 19.7704 2.33626 21.92 4.96C22.24 5.44 22.24 5.44 22.24 5.92C20.656 5.92 19.072 5.92 17.44 5.92C17.2057 5.4547 16.9714 4.9894 16.73 4.51C16.0736 3.2382 15.36 2.18458 14.4 1.12C13.76 0.364844 13.76 0.364844 13.76 0Z" fill="white"/>
<path d="M12.48 6.87994C13.9056 6.87994 15.3312 6.87994 16.8 6.87994C17.3025 8.72252 17.44 9.45825 17.44 11.3599C15.8032 11.3599 14.1664 11.3599 12.48 11.3599C12.48 9.88154 12.48 8.40314 12.48 6.87994Z" fill="white"/>
<path d="M10.08 0C9.99078 0.624536 9.705 0.907539 9.27 1.35C8.00958 2.71061 7.2264 4.26719 6.4 5.92C4.8688 5.92 3.3376 5.92 1.76 5.92C2.19798 4.16805 4.02305 2.65415 5.49 1.72C6.81864 0.940821 8.48916 0 10.08 0Z" fill="white"/>
<path d="M7.04 6.87994C8.4656 6.87994 9.8912 6.87994 11.36 6.87994C11.36 8.35834 11.36 9.83674 11.36 11.3599C9.7232 11.3599 8.0864 11.3599 6.4 11.3599C6.4 10.2706 6.41017 9.50915 6.63 8.48994C6.6727 8.2872 6.71539 8.08446 6.75938 7.87557C6.88 7.35994 6.88 7.35994 7.04 6.87994Z" fill="white"/>
<path d="M12.48 12.48C14.1168 12.48 15.7536 12.48 17.44 12.48C17.1819 14.1575 16.8741 15.3999 16.32 16.96C15.0528 16.96 13.7856 16.96 12.48 16.96C12.48 15.4816 12.48 14.0032 12.48 12.48Z" fill="white"/>
<path d="M6.4 12.48C8.0368 12.48 9.6736 12.48 11.36 12.48C11.36 13.9584 11.36 15.4368 11.36 16.96C10.0928 16.96 8.8256 16.96 7.52 16.96C6.96594 15.3999 6.65808 14.1575 6.4 12.48Z" fill="white"/>
<path d="M12.48 0.639954C13.8562 1.32806 14.7516 2.86627 15.53 4.15995C15.5911 4.26147 15.6522 4.36298 15.7151 4.46757C16.0025 4.96044 16.1802 5.36072 16.32 5.91995C15.0528 5.91995 13.7856 5.91995 12.48 5.91995C12.48 4.17755 12.48 2.43515 12.48 0.639954Z" fill="white"/>
<path d="M11.04 0.639954C11.1984 0.692754 11.3568 0.745554 11.52 0.799954C11.4672 2.48955 11.4144 4.17915 11.36 5.91995C10.1456 5.91995 8.9312 5.91995 7.68 5.91995C7.82427 5.05437 8.01347 4.57932 8.48 3.87995C8.57516 3.7343 8.57516 3.7343 8.67223 3.5857C9.19227 2.80887 9.77913 2.1152 10.4244 1.43808C10.7453 1.10975 10.7453 1.10975 11.04 0.639954Z" fill="white"/>
<path d="M12.48 18.08C13.536 18.08 14.592 18.08 15.68 18.08C15.3197 19.161 15.3197 19.161 15.0125 19.6488C14.9462 19.7548 14.8799 19.8608 14.8116 19.97C14.7418 20.0789 14.6719 20.1878 14.6 20.3C14.5285 20.4126 14.4571 20.5252 14.3834 20.6413C13.8883 21.4152 13.3889 22.1733 12.8 22.88C12.6944 22.88 12.5888 22.88 12.48 22.88C12.48 21.296 12.48 19.712 12.48 18.08Z" fill="white"/>
<path d="M8.16 18.08C9.216 18.08 10.272 18.08 11.36 18.08C11.36 19.664 11.36 21.248 11.36 22.88C10.8104 22.6968 10.7489 22.5925 10.4413 22.125C10.3598 22.0021 10.2783 21.8792 10.1944 21.7525C10.1104 21.623 10.0265 21.4935 9.94 21.36C9.85729 21.2354 9.77459 21.1109 9.68938 20.9825C8.16 18.6557 8.16 18.6557 8.16 18.08Z" fill="white"/>
</svg>
